<svg xmlns="http://www.w3.org/2000/svg" width="319.964" height="195.891" viewBox="0 0 319.964 195.891">
  <g id="Group_197" data-name="Group 197" transform="translate(-119.463 -29.822)">
    <path id="Path_150" data-name="Path 150" d="M279.648,31.839c43.458,0,82.928,10.746,111.543,28.079,28.75,17.415,46.573,41.49,46.573,68.049S419.94,178.6,391.191,196.014c-28.615,17.333-68.085,28.079-111.543,28.079S196.72,213.348,168.1,196.014c-28.749-17.415-46.573-41.49-46.573-68.048S139.356,77.332,168.1,59.918c28.615-17.332,68.085-28.079,111.543-28.079" transform="translate(-0.203 -0.198)" fill="#003783"/>
    <path id="Path_151" data-name="Path 151" d="M163.139,84.525l-5.028-3.273a4.773,4.773,0,0,1-.806,1.381c-.528.565-1.485,1.266-2.526,2.381-3.5,3.75-3.61,7.327-.383,10.551,3.48,3.475,8.274,3.516,11.82-.282.936-1,1.5-2.1,2.147-2.791a4.1,4.1,0,0,1,.989-.762L167.1,87.1l-.5.311c.863,2.142.614,3.924-.73,5.362-2.082,2.231-5.617,1.855-8.224-.749-2.057-2.055-2.3-4.574-.683-6.3,1.3-1.39,2.986-1.391,5.763-.555Zm8.114,4.939,8.449-6.586a1.958,1.958,0,0,1,1.066-.516l-2.083-6.033-.556.207c.647,3.352.074,5.627-1.835,7.114-1.249.973-1.823.746-2.751-.528l-2.876-3.949.885-.689c1.44-1.123,2.474-.972,3.994.179l.243-.415-4.08-3.995-.347.271c.737,1.311.469,1.8-.624,2.653l-.972.757-.9-1.238c-.746-1.023-.894-1.527.164-2.351a4.736,4.736,0,0,1,5.821-.373l.372-.459-3.978-3.371a1.537,1.537,0,0,1-.728,1.13l-7.981,6.22.366.5c.9-.479,1.316.014,2.179,1.2l5.295,7.268c.863,1.185,1.207,1.732.514,2.5Zm7.183-20.373L182.7,77.05c.7,1.3.962,1.888.172,2.546l.295.55,3.724-2.135-.295-.549c-1.143.553-1.628-.12-2.418-1.594l-4.192-7.821,11.272,4.07.243.453c.59,1.1.7,1.628-.325,2.267l.295.55,3.724-2.135-.295-.55c-.959.344-1.3-.2-2-1.5L188.64,63.24c-.7-1.3-.963-1.888-.173-2.547l-.295-.55-3.458,1.983.295.55c.959-.344,1.3.2,2,1.5l1.075,2-3.958-1.4a1.391,1.391,0,0,1-.711-.492.729.729,0,0,1,.153-.781l-.295-.55-7.125,4.085.295.551C177.4,67.244,177.741,67.793,178.437,69.09Zm20.634,2.385,6.618-2.906-.237-.579c-1.125.42-1.546-.2-2.224-1.856l-3.76-9.162.26-.115c1.82-.8,3.416-.3,4.83,1.418l.518-.349-2.9-4.365a1.647,1.647,0,0,1-.807.623l-9.3,4.082a1.593,1.593,0,0,1-.994.168l1.038,5.183.606-.143c-.215-2.25.548-3.781,2.369-4.58l.26-.115,3.76,9.163c.654,1.592.83,2.37-.275,2.952Zm10.359-4.837,6.274-1.984-.178-.6c-1.006.13-1.232-.48-1.652-1.9l-1.124-3.8.713-.508a10.473,10.473,0,0,1,4.461,4.487c.127.43,0,.7-.445,1.1l.178.6,6.461-2.043-.178-.6c-.89.14-1.382-.527-2.222-1.6a19.406,19.406,0,0,0-4.814-4.681c1.527-1.751,2.169-3.035,1.725-4.539-.47-1.591-1.677-1.985-3.692-1.347l-9.744,3.081.178.6c1.006-.131,1.233.48,1.652,1.9l2.572,8.7c.419,1.418.562,2.054-.343,2.528Zm2.838-9.92-1.029-3.481c-.241-.816-.307-1.195,1.085-1.635,1.225-.388,1.947-.1,2.27,1C215.033,54.082,214.226,55.582,212.268,56.719Zm22.615-5.586-.974-3.364c-.109-.39-.178-.7-.226-.914a1.8,1.8,0,0,1,1.141-2.279l-.136-.613-5.017,1.2.137.613c1.479-.169,2.011,1.019,2.714,3.572l1.012,3.633c.095.324.163.629.226.914.572,2.562.167,4.042-1.993,4.557-1.926.46-3.045-.356-3.509-2.436-.1-.438-.21-.941-.326-1.559l-.905-4.558c-.432-2.133-.419-3.174.833-3.657l-.137-.613-7.091,1.692.137.613c1.2-.216,1.443.371,1.76,1.793l.069.307,1.025,5.591c.164.837.27,1.411.334,1.7.733,3.284,2.608,4.293,6.651,3.328,4.212-1.006,5.82-3.193,5.019-6.783C235.444,53.052,235.171,52.126,234.882,51.133Zm13.468-5.828,1.11,8.167c.226,1.669.252,2.5-.984,2.775l.085.623,6.8-.988-.085-.622c-1.013-.034-1.144-.674-1.344-2.142l-1.225-9.012c-.2-1.469-.244-2.12.721-2.442l-.085-.623-6.691.973.085.623a.594.594,0,0,1,.509.516,2.077,2.077,0,0,1-.195.822l-1.157,3.435L244.1,44.4a2.674,2.674,0,0,1-.367-.764.612.612,0,0,1,.354-.619l-.085-.623-7.013,1.02.084.623c1.014.034,1.145.673,1.344,2.142l1.225,9.012c.2,1.469.244,2.12-.721,2.442l.085.623,4.217-.612-.085-.624c-1.261.093-1.48-.715-1.707-2.384l-1.118-8.233,5.12,7.811Zm16.108,9.466,6.557-.237-.022-.628c-1-.144-1.07-.794-1.12-2.276L269.717,47l.719-.588c2.244,2.729,3.225,5.392,3.264,6.537.017.517-.126.769-.579.876l.021.628,6.6-.239.023-.63c-1.466-.284-1.557-1.674-2.366-3.759-1.192-3.1-2.59-5.234-4.131-6.461l.924-.955a7.4,7.4,0,0,1,4.175-2.512l-.021-.628-6.123.221.021.629c.46.1.707.334.72.716.023.718-.926,1.539-2.475,3.3l-.838.951-.087-2.56c-.05-1.482-.028-2.135.964-2.35l-.021-.629-6.557.237.022.628c1,.143,1.069.793,1.12,2.275l.307,9.095c.05,1.482.029,2.135-.965,2.351Zm24.7-10.323-1.825-.584c-1.216-.4-1.912-.741-1.912-1.685,0-.876.782-1.573,2.02-1.573,1.564,0,3.063,1.1,4.085,3.168l.608-.089-.455-4.764a2.146,2.146,0,0,1-1.022.36c-1.195,0-2.65-.45-4.367-.45-3.518,0-5.517,1.932-5.517,4.674,0,2.18,1.195,3.461,3.606,4.27l1.738.584c1.738.584,2.824.809,2.824,2.269,0,1.236-1,2-2.889,2-2.694,0-4.476-1.641-4.932-4.607l-.586.023.37,6.34a1.965,1.965,0,0,1,1.216-.475,40.909,40.909,0,0,0,4.518.543c4.3,0,6.974-2.273,6.974-5.464C293.609,46.313,292.044,45.392,289.155,44.449Zm9.984,8.612,8.146-12.631.015-.315-10.37-.562a1.749,1.749,0,0,1-1.006-.325l-1.39,5.1.6.144a5.641,5.641,0,0,1,5.756-3.243l.759.041-8.218,12.784-.016.314,10.5.57a1.949,1.949,0,0,1,1.179.337l2.3-5.909-.582-.1a6.992,6.992,0,0,1-6.7,3.844Zm11.525,2.829,7.137.906.074-.625c-1.178-.217-1.242-.972-1.03-2.757l1.173-9.88.28.036c1.962.249,3.1,1.5,3.5,3.727l.618-.035-.4-5.28a1.584,1.584,0,0,1-1,.122L310.986,40.83a1.607,1.607,0,0,1-.941-.369l-1.607,5.025.594.189c.9-2.059,2.3-2.99,4.265-2.741l.28.036L312.4,52.85c-.2,1.718-.426,2.481-1.665,2.415Zm17.3-10.541-5.187,8.6c-.843,1.4-1.4,2.288-2.757,2.266l-.127.615,4.806,1.057.126-.616a.991.991,0,0,1-.893-1.276,5.246,5.246,0,0,1,.626-1.424l1.326-2.236c3,.867,4.533,3.018,4.167,4.8a1.114,1.114,0,0,1-1.336.992l-.127.616,7.247,1.593.126-.616c-.9-.244-1.049-1.058-1.227-2.566l-1.2-10.579a2.509,2.509,0,0,1,.017-.731.787.787,0,0,1,.71-.534l.126-.615-6.46-1.42-.127.615c.368.265.493.522.425.851A1.812,1.812,0,0,1,327.968,45.348Zm-1.177,5.508,2.355-3.893.467,5.616A6.717,6.717,0,0,0,326.792,50.856Zm12.38,6.427-.208.8c-.371,1.432-.576,2.05-1.586,1.956l-.158.608,9.632,2.67a1.523,1.523,0,0,1,.9.509l3.124-5.465-.437-.307c-1.934,2.605-3.885,3.622-5.836,3.082-1.637-.454-1.454-1.334-1.043-2.918l.517-2,4.051-.877.518-2.089-4,.775.916-3.537c.36-1.39.607-2,1.692-1.927l.158-.609-6.443-1.784-.158.607c.921.442.8,1.083.428,2.515l-1.507,5.817-.951.2-.563,2.17Zm26.312,3.046.949-6.066a4.418,4.418,0,0,1-1.545-.228c-.71-.281-1.707-.918-3.106-1.474-4.7-1.868-7.931-.573-9.539,3.758-1.734,4.671.1,9.251,4.87,11.143,1.257.5,2.45.609,3.322.955a4.034,4.034,0,0,1,1.065.643l3.237-3.958-.473-.356c-1.57,1.659-3.253,2.118-5.058,1.4-2.8-1.111-3.847-4.623-2.547-8.123,1.025-2.762,3.174-3.975,5.344-3.113,1.744.693,2.4,2.3,2.744,5.27Zm-1.338,9.745,9.589,4.625a1.991,1.991,0,0,1,.94.73l4.172-4.735-.438-.41c-2.557,2.163-4.768,2.709-6.934,1.664-1.417-.683-1.492-1.315-.84-2.76l2.02-4.481,1,.484c1.634.788,1.992,1.8,1.721,3.731l.468.027,1.494-5.6-.394-.19c-.773,1.289-1.317,1.274-2.557.675l-1.1-.531.634-1.406c.523-1.16.883-1.533,2.084-.953a5.048,5.048,0,0,1,3.051,5.141l.567.125,1.009-5.216a1.439,1.439,0,0,1-1.306-.133l-9.058-4.369-.257.571c.832.6.605,1.209,0,2.553l-3.718,8.248c-.606,1.344-.912,1.916-1.891,1.642Zm20.2-2.931-4.531,7.8c-.738,1.271-1.1,1.807-2.047,1.428l-.313.539,3.649,2.268.314-.538c-1.035-.748-.714-1.519.124-2.964L386,68.011l2.228,12.132-.258.443c-.626,1.078-1.014,1.441-2.06.843l-.314.539,3.65,2.268.313-.539c-.766-.686-.48-1.268.259-2.539l4.532-7.8c.738-1.271,1.1-1.806,2.046-1.428l.314-.539-3.39-2.106-.314.539c.767.686.481,1.269-.258,2.54l-1.142,1.964-.8-4.247a1.488,1.488,0,0,1,.057-.883.676.676,0,0,1,.73-.253l.313-.539-6.983-4.34-.313.539C385.374,65.29,385.087,65.871,384.349,67.143Zm5.834,17.93,5.025,4.362.391-.482c-.654-.8-.282-1.33.639-2.466l5.655-6.971c.922-1.136,1.36-1.606,2.237-1.079l.391-.482L399.5,73.592l-.391.482c.654.8.282,1.33-.639,2.466l-5.655,6.971c-.922,1.136-1.36,1.607-2.237,1.08ZM409.3,85.8,400.1,89.272c-1.5.566-2.467.909-3.52.03l-.466.4L399.27,93.6l.465-.4a1.016,1.016,0,0,1,.056-1.573,4.913,4.913,0,0,1,1.341-.724l2.376-.918c1.847,2.591,1.775,5.265.427,6.435a1.084,1.084,0,0,1-1.644-.069l-.466.4,4.762,5.869.466-.4c-.567-.769-.2-1.5.561-2.8l5.35-9.1a2.382,2.382,0,0,1,.449-.566.761.761,0,0,1,.876.032l.466-.4-4.245-5.233-.466.4a.8.8,0,0,1-.171.941A1.717,1.717,0,0,1,409.3,85.8Zm-4.2,3.591,4.173-1.569L406.3,92.544A7.149,7.149,0,0,0,405.1,89.39Z" transform="translate(-3.204 -0.886)" fill="#ffbe00" fill-rule="evenodd"/>
    <path id="Path_152" data-name="Path 152" d="M282.883,61.95c69.389,0,125.981,31.559,125.981,70.254s-56.592,70.255-125.981,70.255S156.9,170.9,156.9,132.2,213.5,61.95,282.883,61.95" transform="translate(-3.68 -3.158)" fill="#fff" fill-rule="evenodd"/>
    <path id="Path_153" data-name="Path 153" d="M267.529,174.437a5.765,5.765,0,0,1,1.108-.647.927.927,0,0,1-.594-.885c-.42-1.377,1.784-3.071,2.588-4.483,0-.318-.419-1.27-.419-1.554a15.885,15.885,0,0,0,.49-2.329c0-1.518-.735-4.2-.245-5.683-.734-.882-.559-2.083-1.294-2.965a6.862,6.862,0,0,1-3.078,1.447.462.462,0,0,1,0,.048c0,.018,0,.038,0,.059s0,.043-.005.069-.005.05-.008.078-.006.056-.01.087l-.012.1c0,.033-.009.069-.014.1h0c-.005.036-.011.075-.016.114h0c-.005.039-.012.078-.017.12h0c-.006.041-.014.085-.02.129h0c-.006.045-.014.089-.021.136h0c-.007.047-.014.1-.023.144h0c-.008.049-.015.1-.023.15h0c-.008.051-.017.1-.026.157h0c-.008.053-.017.107-.026.162h0c-.009.055-.02.111-.029.168h0c-.01.057-.019.114-.03.172v0l-.03.179h0c-.011.06-.021.121-.032.182v0c-.011.061-.022.124-.033.188h0c-.011.063-.022.127-.033.191h0c-.012.065-.023.13-.034.2h0l-.035.2v0c-.012.066-.025.133-.037.2v0c-.012.067-.024.134-.036.2v0c-.013.068-.025.137-.038.207v0c-.476,2.644-1.085,5.8-1.191,6.5.117,3.292.316,3.38,1.1,4.222h0l.055.06h0l.058.061h0l.06.065h0l.062.069h0l.063.073h0c.021.025.043.05.066.077h0l.068.081h0l.069.086h0c.023.03.049.06.072.091h0l.076.095.077.1c.026.034.051.07.078.107s.054.074.081.114l.085.119c.029.041.058.083.087.126s.059.087.088.133l.091.141.095.148.1.156.1.164c.034.057.068.115.1.174a4.314,4.314,0,0,0,.5.367m103.16-54.524c1.5,1.2.525,6.248-1.435,6.248a7.968,7.968,0,0,1-2.2,4.73,32.042,32.042,0,0,1,.979,4.765,3.9,3.9,0,0,1-2.239,1.483c0,3-1.049,7.13-.734,9.847.559,4.731-.77,18.78-.63,23.192.07,1.095.245,1.447-.35,2.048a1.21,1.21,0,0,1-.1.953c.14.812,1.119,2.259,1.119,3.247.49,2.472-4.372,3.989-5.387.918l-.315-2.647a6.043,6.043,0,0,1-.316-2.153,2.855,2.855,0,0,1-1.084-1.624c-.84.177-2.834-.07-3.428-.812-.175.706-.316,1.447-.525,2.365-.245,0-.49.282-.735.282,0,.389.105.847.105,1.235-.141.212-.455.494-.77.848-.14,1.871.175,2.329-.735,3.247-.384.389-3.848,1.836-4.932-.671,0-2.117.525-2.4,1.295-4.2-.316-.424.14-1.2.14-1.624-.14-1.235-.28-2.506-.455-3.777-.559-.636-.734-1.482-.979-3.424a62.39,62.39,0,0,0-.8-6.213l-.7-8.33c-.594,2.082-.175,4.589-.28,6.919.629,2.576,0,4.659.524,6.565,0,.317-.384.564-.454,1.094l.14.353a3.87,3.87,0,0,1,.105,1.023v1.306l-2.1,1.236c-.91,1.094-2.2,2.788-3.813,2.647-.944-.036-2.379-.071-2.379-1.165-.42-1.377,1.784-3.071,2.589-4.483,0-.317-.42-1.271-.42-1.553a15.751,15.751,0,0,0,.491-2.33c0-1.518-.735-4.2-.245-5.683-.735-.884-.56-2.083-1.294-2.966a6.869,6.869,0,0,1-3.079,1.447c0,.014,0,.03,0,.048s0,.037,0,.059l-.005.069-.008.078c0,.028-.006.056-.01.087l-.012.1c0,.033-.009.068-.014.1h0q-.008.054-.016.114h0l-.017.121h0c-.005.042-.013.084-.019.128h0c-.007.044-.014.089-.021.136h0c-.007.047-.015.095-.023.144h0c-.007.05-.015.1-.023.151h0c-.008.051-.016.1-.025.157h0c-.008.054-.018.108-.027.163h0c-.009.055-.019.112-.029.169h0c-.009.057-.019.115-.029.173h0c-.01.059-.02.119-.031.179h0c-.01.06-.021.121-.032.182h0l-.033.188h0c-.011.063-.023.126-.034.191h0c-.011.064-.022.13-.034.2h0c-.011.066-.023.133-.035.2v0c-.012.066-.024.133-.037.2v0c-.012.068-.023.135-.036.2v0c-.012.068-.024.137-.037.206v0l-.038.207v0c-.471,2.6-1.05,5.609-1.154,6.3.118,3.292.317,3.379,1.1,4.221h0l.056.06h0l.058.061h0l.059.066h0l.062.069h0l.063.072h0c.022.024.045.05.067.076h0l.068.08h0l.07.086h0l.072.09h0l.075.095.077.1.079.107.081.114.085.119.087.127c.029.042.059.087.088.133l.091.141.094.148.1.156c.032.054.066.108.1.164s.066.115.1.174c1.4,1.2,3.183,1.059,3.183,2.259-.525.953-4.618.529-5.387.424.315.988,1.573,2.259,1.434,3.036a.578.578,0,0,1-.49.6c-.979,0-4.582-.424-5.352-1.235-1.05-1.095-1.05-2.93-1.435-3.389-.875-1.2-2.309-1.73-1.4-3.353a8.887,8.887,0,0,1-2.449-1.342c-1.959,0-3.043.035-4.268-.918a8.626,8.626,0,0,1,.455-3.247c-1.435,0-.455,2.647-1.4,2.93.559.883,1.889,2.718,1.469,3.777A1.123,1.123,0,0,1,320,172.19c.524.318.979.565,1.119,1.095a5.469,5.469,0,0,1,.244,1.589c-1.224,1.482-6.016,1.2-7.73.282-.7-.282-2.415-1.766-3.429-1.482l.035,1.341c-1.469,0-3.462.424-4.372-.918v-1.765a2.176,2.176,0,0,1-.28-2.329c.35-1.236,1.33-4.765,1.54-5.648.209-4.483-1.19-9.249-.35-13.661l-.735-5.365c-.245,1.2-.28,4.765-1.12,5.507-.629,3.247-.8,21.074-1.154,23.014l.734,1.8,2.415,2.153a3.072,3.072,0,0,1,.244,1.8c-1.05.918-1.644.741-3.743.424a6.873,6.873,0,0,1-3.918-2.082l-.315-1.2a2.691,2.691,0,0,1-.316.317,6.536,6.536,0,0,1-1.119-.812v-1.659c-.49,0-1.889-.353-2.029-1.095l-.179-8.2c-.182,3.339-.335,6.322-.283,7.966.069,1.094.244,1.447-.35,2.047a1.211,1.211,0,0,1-.106.954c.141.812,1.12,2.259,1.12,3.247.49,2.471-4.372,3.989-5.388.918l-.315-2.647c-.019-.053-.034-.107-.05-.16-.861.422-1.949.676-2.529.257-1.232-1.689-1.127-2.628-.592-3.933a2.907,2.907,0,0,1-1.655-.753c-.175.706-.316,1.447-.525,2.364-.245,0-.491.283-.736.283,0,.389.105.848.105,1.235-.14.212-.454.494-.77.848-.14,1.87.176,2.329-.734,3.247-.385.388-3.848,1.836-4.933-.671,0-2.117.525-2.4,1.295-4.2-.315-.424.141-1.2.141-1.624-.015-.132-.03-.265-.044-.4h-.473c-.1-.6-.28-1.27-.979-1.482a5.371,5.371,0,0,0-4.373,2.683,6.319,6.319,0,0,1-3.239.454.928.928,0,0,1,.083.4c-.525.953-4.618.529-5.388.424.315.988,1.574,2.259,1.435,3.035a.579.579,0,0,1-.49.6c-.98,0-4.582-.424-5.353-1.235-1.05-1.095-1.05-2.93-1.435-3.389-.875-1.2-2.308-1.729-1.4-3.353a8.908,8.908,0,0,1-2.449-1.342c-1.959,0-3.043.035-4.268-.918a8.623,8.623,0,0,1,.454-3.247c-1.434,0-.454,2.646-1.4,2.93.56.883,1.889,2.718,1.47,3.776a1.123,1.123,0,0,1-.56,1.659c.525.317.979.565,1.119,1.095a5.508,5.508,0,0,1,.245,1.589c-1.225,1.482-6.017,1.2-7.731.282-.7-.282-2.414-1.765-3.428-1.482l.035,1.341c-1.47,0-3.463.424-4.372-.918V175.41a2.177,2.177,0,0,1-.28-2.33c.35-1.235,1.329-4.765,1.539-5.647.21-4.483-1.189-9.248-.35-13.661l-.735-5.366c-.244,1.2-.28,4.766-1.119,5.508-.629,3.247-.8,21.073-1.154,23.015l.734,1.8,2.414,2.153a3.074,3.074,0,0,1,.245,1.8c-1.05.917-1.645.74-3.744.423a6.866,6.866,0,0,1-3.917-2.083l-.315-1.2a2.692,2.692,0,0,1-.316.317,6.491,6.491,0,0,1-1.119-.812V177.67c-.49,0-1.889-.353-2.029-1.095l-.245-11.155c-.6.212-.454.742-.769.989-1.014-.142-1.26.211-2.2.706l-.805,3.353.35,1.623v.021l.349,1.638c.21,1.553-.454,1.941-.769,3.707a9.972,9.972,0,0,1-.245,2.294c-.35.706-2.764,1.906-3.743,1.2-1.749-2.4-.805-3.282.244-5.86a12.329,12.329,0,0,0,.64-2.868v0l.011-.046v0l.011-.046h0c0-.015.008-.032.012-.047v0c0-.015.007-.031.012-.047h0c0-.016.009-.032.013-.048h0l.013-.048h0l.014-.049.014-.048.015-.05c0-.017.01-.032.015-.049.594-1.27.244-3.283.1-5.719-.735,0-3.113.847-3.463-.212l-2.169-.105a5.18,5.18,0,0,1-.105-1.307c-1.014.671-1.958-.07-3.113.988l-.016.088-.018.087c-.006.03-.012.059-.019.089s-.014.06-.02.089-.014.059-.021.089-.014.06-.022.09l-.023.09-.023.091c-.007.031-.014.061-.023.091l-.024.092c-.008.031-.016.061-.025.093l-.026.093-.026.092-.027.094c-.009.032-.018.062-.028.094h0c-.008.032-.019.063-.028.095h0c-.01.031-.018.062-.028.093h0l-.029.094h0c-.009.032-.018.063-.028.095h0l-.03.1h0c-.01.032-.02.062-.029.095h0l-.03.1h0c-.01.032-.021.064-.03.1h0l-.03.1h0a13.661,13.661,0,0,0-.763,3.776c0,.024,0,.049,0,.074v.1c0,.035,0,.07,0,.1h0v.035a4.129,4.129,0,0,1,1.294,2.858c-.175.953-.559.848-.454,2.789h-.665c-.1-.6-.28-1.271-.98-1.482a5.37,5.37,0,0,0-4.372,2.683c-1.05.776-5.212.459-5.7,0l-.419-.671c.175-.67,2.589-1.482,3.987-2.188,1.5-2.083,2.2-2.259,3.009-4.871a48.156,48.156,0,0,0,1.539-6.919c-.7-.388-1.924-.106-2.064-1.165.8-14.543.35-21.214,1.364-27.5.21-1.129,1.294-3.211.945-4.271l-1.539-4.553c-.385-1.2.034-2.4-.245-4.624a4.333,4.333,0,0,1-1.364-1.412,49.33,49.33,0,0,1,.665-5.542c.6-2.4,1.364-5.189,1.784-6.884.35-1.482,2.483-1.341,3.5-1.765-1.679-.248-1.819-1.907-.209-3.071-1.435-2.33-.735-1.906-.245-5.33-.455-1.8.28-3,.665-4.377.385-1.342,1.05-2.295,2.134-1.7a3.068,3.068,0,0,1,3.778-.459c3.113-.564,5,4.448,5.281,5.013.911,1.447.105,2.153.525,3,.316.564,1.47,1.023,1.645,2.083l4.653-2.859a2.565,2.565,0,0,1,1.889-.777,2.658,2.658,0,0,1,.839-1.518c0-.918.14-2.082.14-2.683-.244,0-.49-.283-.734-.283,0-.317-.49-1.8-.245-2.082l.77-.282c-.491-.671-.035-3.389-.035-4.271.944-1.095.839-1.659,3.148-2.118,2.309-.424,5.178,1.377,6.227,2.294,1.154.6.49,1.483.875,2.825a11,11,0,0,1-1.435,2.929c.525-.281.769.53.56.954-.07,1.412-.63,1.059-1.364,1.059a2.926,2.926,0,0,1-.735,1.729,5.567,5.567,0,0,1-1.364,2.295c.629.247,1.014.494.945,1.235a11.71,11.71,0,0,0,4.128,2.4c1.049-.353,3.567-1.094,4.617-1.412.525-.847,1.155-2.153,1.82-2.153l.629-1.624-.524-1.164-.525-.106a2.148,2.148,0,0,1-.736-1.835c0-.777-.175-1.307.211-1.413.244-.282,0-1.094,0-1.977a8.85,8.85,0,0,1,7.031-3.282c2.239.424,1.959,2.4,2.939,3.6.385,2.824-.384,2.329-.769,4.307a2.95,2.95,0,0,1-.77,1.835c0,.6-.49.953-.734,1.27a16.1,16.1,0,0,0-.175,1.872l.979,1.164c1.469-1.765,1.189-3.848,1.923-5.93.77-2.082,4.478-5.048,5.458-4.941.734.282.315.459.979.389,4.443-.036,4.513,4.694,4.618,7.518l.525.564,1.924-1.482c0-.6-.21-1.482-.21-2.083-.77-.917-.175-2.047-1.61-2.047-.14-.777-1.783-2.118-.839-2.754-.944-2.047-.665-1.977-.665-4.024.42-3,6.123-4.341,9.166-1.94a5.28,5.28,0,0,1,.559,4.482c0,.918-.279,2.118-.279,3a2.034,2.034,0,0,1-.315,1.2c0,.248.1,1.059.1,1.483l1.346,1.173c.068-.335.136-.724.2-1.181a5.22,5.22,0,0,1,.28-3.2,1.871,1.871,0,0,1,.064-.191c.113-.326.228-.651.321-.987.374-1.3,1.014-2.239,2.045-1.739,2.89-2.716,4.258-1.905,5.142-.336a3.012,3.012,0,0,1,.44.173c1.624-.52,2.487,1.253,2.852,3.248.387.734.628,1.339.715,1.515.91,1.446.1,2.152.525,3,.315.564,1.469,1.023,1.644,2.083l4.653-2.859a2.565,2.565,0,0,1,1.889-.777,2.666,2.666,0,0,1,.839-1.518c0-.917.14-2.083.14-2.683-.244,0-.49-.282-.734-.282,0-.318-.49-1.8-.245-2.083l.77-.282c-.491-.671-.035-3.389-.035-4.271.945-1.094.839-1.659,3.148-2.118,2.309-.423,5.178,1.377,6.227,2.295,1.154.6.49,1.482.875,2.824a10.971,10.971,0,0,1-1.434,2.93c.524-.282.769.529.559.953-.07,1.412-.629,1.059-1.364,1.059a2.929,2.929,0,0,1-.734,1.73,5.565,5.565,0,0,1-1.365,2.294c.629.247,1.015.494.945,1.235a11.72,11.72,0,0,0,4.128,2.4c1.049-.353,3.568-1.095,4.618-1.412.525-.847,1.154-2.153,1.819-2.153l.63-1.623-.525-1.165-.525-.106a2.144,2.144,0,0,1-.735-1.835c0-.777-.175-1.307.21-1.412.244-.282,0-1.095,0-1.977a8.846,8.846,0,0,1,7.031-3.283c2.239.423,1.959,2.4,2.939,3.6.384,2.824-.385,2.329-.77,4.307a2.942,2.942,0,0,1-.77,1.835c0,.6-.49.953-.734,1.271a16.05,16.05,0,0,0-.175,1.871l.979,1.165c1.47-1.766,1.189-3.848,1.924-5.93.77-2.083,4.477-5.048,5.457-4.942.735.282.316.459.98.389,4.442-.035,4.512,4.694,4.617,7.518l.526.564,1.923-1.482c0-.6-.209-1.482-.209-2.082-.77-.918-.175-2.048-1.61-2.048-.14-.776-1.784-2.118-.84-2.753-.944-2.048-.665-1.977-.665-4.024.42-3,6.123-4.343,9.166-1.941a5.28,5.28,0,0,1,.56,4.483c0,.917-.279,2.117-.279,3a2.036,2.036,0,0,1-.315,1.2c0,.247.1,1.059.1,1.482l1.539,1.342c.14-.353.034-.636.49-.636a2.773,2.773,0,0,1-.315-2.436c0-1.694.1-1.765,1.014-2.789,4.163-4.8,5.807-3.671,6.821-1.658,2.518-1.166,3.359,2.894,3.359,5.576a3.357,3.357,0,0,0,.349.6c0,1.2-.525,3.318-1.748,3.318-.105.388-.21.847-.28,1.235-.07.776-.14,1.553-.244,2.33,7.8,4.377,11.019,3.459,11.054,7.095l.979,1.2a62.661,62.661,0,0,0,1.19,9.531C370.2,119.736,370.689,117.583,370.689,119.913Z" transform="translate(-7.728 -4.956)" fill="#003783" fill-rule="evenodd"/>
    <path id="Path_154" data-name="Path 154" d="M352.771,134.092l1.027.581a4.384,4.384,0,0,0,2.28,1.866c1.048.415,3.832,1.181,8.372,2.322a33.025,33.025,0,0,1,6.585,2.125,4.928,4.928,0,0,1,2.321,2.737l-.215.114a8.5,8.5,0,0,0-2.928-2.322,39.264,39.264,0,0,0-6.07-1.773,47.933,47.933,0,0,1-8.783-2.633,4.381,4.381,0,0,1-2.589-3.016m3.759,9.838a10.251,10.251,0,0,0,5.958,7.743v.249a9.167,9.167,0,0,1-4.54-2.706,10.831,10.831,0,0,1-2.23-5.131Zm21.429-8.749a10.127,10.127,0,0,1,4.1,8.5,13.143,13.143,0,0,1-2.2,7.266,14.019,14.019,0,0,1-6.317,5.245,17.361,17.361,0,0,1-7.048,1.4,21.291,21.291,0,0,1-3.554-.228c-.862-.145-3.143-.694-6.862-1.617a14.3,14.3,0,0,0-3.544-.426,7.289,7.289,0,0,0-3.226.7l-.359-.881a7.322,7.322,0,0,1,3.185-.726,13.523,13.523,0,0,1,2.454.207c.74.145,2.836.632,6.307,1.462a23.977,23.977,0,0,0,5.63.663,16.72,16.72,0,0,0,5.567-.943,13.422,13.422,0,0,0,4.6-2.612,13.192,13.192,0,0,0,3.288-4.426,12.359,12.359,0,0,0,1.233-5.256,11.558,11.558,0,0,0-3.257-8.137Zm-6.923-12.055q-3.314-3.561-7.1-3.555a5.408,5.408,0,0,0-3.852,1.4,4.46,4.46,0,0,0-.78,5.638,12,12,0,0,0,2.618,2.467l-.153.249q-3.976-1.788-3.976-5.255a4.827,4.827,0,0,1,1.684-3.794,6.291,6.291,0,0,1,4.335-1.492,9.073,9.073,0,0,1,4.561,1.109,6.846,6.846,0,0,1,2.876,3.12Zm8.794-6.043c-.945,1.607-1.736,3.088-2.383,4.467q-2.343,4.945-2.527,5.194l-.719-.3q1.048-2.443,4.694-9.506l.154-.249Zm-1.87-1.275a18.979,18.979,0,0,0-2.5,4.436,43.706,43.706,0,0,1-2.589,5.774l-.185-.518a26.266,26.266,0,0,0-1.376-3.793,7.128,7.128,0,0,0-1.624-2.042,9.082,9.082,0,0,0-6.235-2.456,8.012,8.012,0,0,0-5.372,1.8,6,6,0,0,0,1.612,10.127,15.526,15.526,0,0,0,2.5.985q1.109.327,6.471,1.628,5.532,1.338,8.033,4.105a10.683,10.683,0,0,1,2.825,7.4,10.952,10.952,0,0,1-3.791,8.509,13.028,13.028,0,0,1-9.122,3.307,24.364,24.364,0,0,1-4.16-.321q-1.88-.311-7.027-1.617a15.486,15.486,0,0,0-3.524-.518,7.334,7.334,0,0,0-3.79,1.181l-.247-.425a45.69,45.69,0,0,0,3.092-5.515,35.318,35.318,0,0,0,2.147-5.3l.545.156a13.379,13.379,0,0,0,1.5,4.768,9.371,9.371,0,0,0,3.913,3.731,14.488,14.488,0,0,0,6.739,1.545A9.664,9.664,0,0,0,371.971,151a6.414,6.414,0,0,0,2.527-5.224,6.95,6.95,0,0,0-1.069-3.659,8.093,8.093,0,0,0-2.968-2.83,14.7,14.7,0,0,0-3.215-1.389c-1.181-.353-3.123-.788-5.8-1.316q-5.717-1.15-8.033-3.555a10.931,10.931,0,0,1,1.11-15.632,13.21,13.21,0,0,1,8.423-2.581,32.173,32.173,0,0,1,8.218,1.275,13.661,13.661,0,0,0,3.2.6,6.522,6.522,0,0,0,3.277-1.026Zm-29.893,1.917-.534.913a4.67,4.67,0,0,0-3.164,2,10.836,10.836,0,0,0-.812,4.986v31.3h-6.472l-.39-.819h6.05V125.925q0-4.292,1.1-5.981C344.573,118.8,345.98,118.067,348.066,117.725ZM341.09,154.44h-5.085L321.8,126.619v16.492l-.031,1.585c0,4.364,1.038,7.256,3.1,8.655l.235.207a5.18,5.18,0,0,1-3.174-2.84,15.029,15.029,0,0,1-.976-6.084l.031-2.893V125.137l-1.633-3.193v17.5q0,5.069.216,7.194a10.791,10.791,0,0,0,.842,3.493,7.71,7.71,0,0,0,5.116,3.98l2.619,2.82H311.833l-.482-.819h15.08l-1.561-1.669H310.837a9.2,9.2,0,0,0,4.1-2.488,7.756,7.756,0,0,0,1.53-3.3,26.339,26.339,0,0,0,.453-5.515v-24.3l-4.007-3.369h15.235l-4.274,2.882,14.567,28.671v-3.638l-12.491-24.546,4.212-2.882.575.581-3.729,2.55,11.434,22.649v-14.18c0-3.2-.021-5.11-.072-5.743a7.483,7.483,0,0,0-.5-2.062c-.657-1.721-2.168-3.151-4.509-4.281h13.662a17.093,17.093,0,0,0-3.657,2.343,6.42,6.42,0,0,0-1.551,2.612,25.76,25.76,0,0,0-.72,7.256ZM302.8,130.413a32.61,32.61,0,0,0,3.308,7.5,52.088,52.088,0,0,0-5.537-.456c-.092,0-.318.011-.657.032l5.023,13.454,6.719,5.981H294.226l-.564-.819h15.974l-5.414-4.83-5.361-14.3a9.222,9.222,0,0,1,2.29-.27,27.964,27.964,0,0,1,3.667.27,28.36,28.36,0,0,1-2.949-7.132Zm-17.69-8.707-4.787,12.75a80.666,80.666,0,0,1,5.629,7.017q.356-.419,1.048-1.243a29.128,29.128,0,0,0-4.9-5.93l3.852-10.262Zm1.345,3.514-3.307,8.811c.185.228.7.809,1.541,1.762a40.518,40.518,0,0,1,2.825,3.857,23.173,23.173,0,0,1,3.071-3.244Zm7.438-9.744-3.133,3.586,4.941,13.238,1.2-.664-4.458-11.973,3.195-3.7.781.332-3.041,3.555,4.212,11.33c.247-.187.72-.581,1.417-1.192a7.984,7.984,0,0,0,1.141-1.026,24.331,24.331,0,0,0,1.038,3.244,23.122,23.122,0,0,0,1.376,2.944c-.585-.032-1.006-.052-1.263-.052a7.6,7.6,0,0,0-4.191.9l5.454,14.916,4.51,3.524H291.884l4.151-3.524-3.339-8.863a40.464,40.464,0,0,0-2.846,3.265,29.075,29.075,0,0,0-2.239,3.141l-.7-.187a41.677,41.677,0,0,1,5.537-6.955l-.565-1.337a26.281,26.281,0,0,0-3.225,3.286,28.694,28.694,0,0,0-2.7,3.7,84.026,84.026,0,0,0-4.848-6.986q-2.326,5.192-2.321,8.448a8.508,8.508,0,0,0,1.839,5.162c.256.363,1.119,1.472,2.589,3.337H266.963l-.607-.819h15.327a27.927,27.927,0,0,1-3.092-4.323,7.393,7.393,0,0,1-.647-3.265q0-3.11,2.5-9.236l-1.316-1.4a53.687,53.687,0,0,0-1.962,5.815,19.035,19.035,0,0,0-.842,4.3,6.263,6.263,0,0,0,1.448,4.157c.175.228.874.985,2.076,2.28H264.8a18.044,18.044,0,0,0,4.5-3.13,20.679,20.679,0,0,0,3.3-4.706,36.752,36.752,0,0,0,2.085-4.323c.493-1.254,1.171-3.255,2.034-6.033a6.19,6.19,0,0,0-2-1.047,12.532,12.532,0,0,0-2.6-.621,24.788,24.788,0,0,0,1.428-2.551,21.172,21.172,0,0,0,1.13-2.643c.277.28.9.871,1.869,1.762a18.666,18.666,0,0,0,1.655,1.369l.534-1.337c-1.223-1.1-2.271-1.99-3.153-2.674l.482-.674a19.841,19.841,0,0,1,3.071,2.467l4.089-11.361-3.2-3.462Zm-21.789-8.106a36.535,36.535,0,0,0-5.927,9.112,90,90,0,0,0-4.787,14.024l-5.322,19.623,5.774,6.8h-15.44l-.688-.819h14.289l-4.869-5.681,5.536-20.348a93.686,93.686,0,0,1,4.726-13.921,39.891,39.891,0,0,1,6.02-9.307Zm-1.808-2.312a38.046,38.046,0,0,0-6.3,9.268,105.351,105.351,0,0,0-5.013,15.268l-5.208,19.135.606,2.374,3.7,3.337H244.363l3.945-3.337-5.332-19.467L237.8,150.677l5.178,6.251H227.6l-.6-.819h14.321l-4.51-5.255,5.681-20.773-.985-3.607-6.174,22.742.482,1.887,3.524,3.337H225.584l4.088-3.337-8.752-31.8-4.52-3.825h14.721L227,119.3l6.883,25.022,1.059-3.669-5.8-20.9,2.732-2.457.7.488-2.507,2.239,5.27,19.1,6.441-23.654H244.6l7.828,28.609.966-3.431-6.924-25.178h.842l6.472,23.654,2.825-10.262q2.65-9.655,2.65-12.542a5.779,5.779,0,0,0-.688-2.965,6.636,6.636,0,0,0-2.322-2.167,56.238,56.238,0,0,0,7.54-3.068,34.831,34.831,0,0,0,6.031-3.493Zm-57.507,25.355a32.646,32.646,0,0,0,3.308,7.5,52.088,52.088,0,0,0-5.537-.456c-.092,0-.318.011-.657.032l5.023,13.454,6.719,5.981H204.217l-.565-.819h15.974l-5.413-4.83-5.362-14.3a9.223,9.223,0,0,1,2.29-.27,27.964,27.964,0,0,1,3.667.27,28.285,28.285,0,0,1-2.948-7.132Zm-17.69-8.707-4.787,12.75a80.66,80.66,0,0,1,5.629,7.017L197,140.229a29.163,29.163,0,0,0-4.9-5.93l3.852-10.262Zm1.346,3.514-3.308,8.811c.185.228.7.809,1.541,1.762a40.684,40.684,0,0,1,2.825,3.857,23.134,23.134,0,0,1,3.072-3.244Zm7.437-9.744-3.133,3.586L205.7,132.3l1.2-.664-4.458-11.973,3.195-3.7.781.332-3.041,3.555,4.211,11.33c.247-.187.72-.581,1.417-1.192a7.929,7.929,0,0,0,1.141-1.026,24.345,24.345,0,0,0,1.038,3.244,22.989,22.989,0,0,0,1.376,2.944c-.585-.032-1.006-.052-1.263-.052a7.6,7.6,0,0,0-4.191.9l5.454,14.916,4.51,3.524H201.875l4.15-3.524-3.338-8.863a40.474,40.474,0,0,0-2.846,3.265,29.084,29.084,0,0,0-2.239,3.141l-.7-.187a41.675,41.675,0,0,1,5.537-6.955l-.565-1.337a26.275,26.275,0,0,0-3.225,3.286,28.692,28.692,0,0,0-2.7,3.7,84.037,84.037,0,0,0-4.848-6.986q-2.326,5.192-2.321,8.448a8.509,8.509,0,0,0,1.839,5.162c.257.363,1.119,1.472,2.589,3.337H176.953l-.606-.819h15.327a27.926,27.926,0,0,1-3.092-4.323,7.38,7.38,0,0,1-.647-3.265q0-3.11,2.5-9.236l-1.316-1.4a53.491,53.491,0,0,0-1.961,5.815,19,19,0,0,0-.843,4.3,6.259,6.259,0,0,0,1.449,4.157c.174.228.873.985,2.075,2.28H174.786a18.022,18.022,0,0,0,4.5-3.13,20.647,20.647,0,0,0,3.3-4.706,36.734,36.734,0,0,0,2.085-4.323c.493-1.254,1.171-3.255,2.034-6.033a6.192,6.192,0,0,0-2-1.047,12.518,12.518,0,0,0-2.6-.621,24.78,24.78,0,0,0,1.428-2.551,21.165,21.165,0,0,0,1.13-2.643c.278.28.9.871,1.869,1.762a18.788,18.788,0,0,0,1.655,1.369l.534-1.337c-1.223-1.1-2.27-1.99-3.154-2.674l.483-.674a19.842,19.842,0,0,1,3.071,2.467l4.089-11.361-3.195-3.462Z" transform="translate(-5.438 -7.354)" fill="#ffbe00" fill-rule="evenodd"/>
    <path id="Path_155" data-name="Path 155" d="M408.716,109.986a4.824,4.824,0,0,1,3.374,8.223,4.738,4.738,0,0,1-3.374,1.414,4.824,4.824,0,0,1-3.373-8.224,4.736,4.736,0,0,1,3.373-1.414m0,.6a4.15,4.15,0,0,0-2.952,1.237,4.222,4.222,0,0,0,2.952,7.2,4.147,4.147,0,0,0,2.953-1.237,4.222,4.222,0,0,0-2.953-7.2Z" transform="translate(-27.964 -7.88)" fill="#ffbe00"/>
    <path id="Path_156" data-name="Path 156" d="M408.1,114.741h.731a3.84,3.84,0,0,0,.89-.059.539.539,0,0,0,.277-.209.65.65,0,0,0,.1-.371.6.6,0,0,0-.133-.4.605.605,0,0,0-.373-.195q-.119-.016-.721-.016H408.1Zm-.99,2.854v-4.944h2.083a3.538,3.538,0,0,1,1.141.133,1.126,1.126,0,0,1,.571.473,1.435,1.435,0,0,1,.213.779,1.332,1.332,0,0,1-.324.92,1.55,1.55,0,0,1-.969.455,2.33,2.33,0,0,1,.53.416,5.677,5.677,0,0,1,.563.8l.6.965h-1.183l-.715-1.077a7.142,7.142,0,0,0-.521-.726.772.772,0,0,0-.3-.206,1.629,1.629,0,0,0-.5-.055h-.2V117.6Z" transform="translate(-28.276 -8.142)" fill="#ffbe00" fill-rule="evenodd"/>
    <path id="Path_157" data-name="Path 157" d="M414.334,168.714l2.209,3.142a.614.614,0,0,0-.5.27c-.053.077-.314.521-.787,1.337-.2.344-.408.671-.62.976a7.579,7.579,0,0,1-3.865,3.042,5.386,5.386,0,0,1-2.52.195,6,6,0,0,1-4.018-2.72,4.926,4.926,0,0,1-.7-2.148,6.364,6.364,0,0,1,1.3-4.233,13.232,13.232,0,0,1,1.549-1.79,4.349,4.349,0,0,0,.42-.465.944.944,0,0,0,.1-.942l4.369,1.933-.125.331a7.772,7.772,0,0,0-1.888-.239,4.048,4.048,0,0,0-1.62.38,3.213,3.213,0,0,0-1.294,1.077,2.945,2.945,0,0,0-.35,2.683,4.218,4.218,0,0,0,1.621,2,6.019,6.019,0,0,0,1.573.794,4.626,4.626,0,0,0,1.618.261,4,4,0,0,0,1.694-.4,3.836,3.836,0,0,0,1.488-1.271,3.364,3.364,0,0,0,.61-2.306,3.793,3.793,0,0,0-.582-1.665Zm-10.113,10.466,2.242,2.1a2.107,2.107,0,0,0,1.006.648.822.822,0,0,0,.5-.093,2.147,2.147,0,0,0,.382-.316l.295.277-3.855,4.151-.295-.277a1.524,1.524,0,0,0,.333-.558.885.885,0,0,0-.179-.745,4.066,4.066,0,0,0-.529-.563l-2.242-2.1-4.884-.955a5.211,5.211,0,0,0-1.039-.135,1.543,1.543,0,0,0-.732.275l-.295-.277,4.082-4.4.295.277q-.36.556,0,.9a1.925,1.925,0,0,0,.792.328l2.713.677-.408-1.559q-.149-.54-.4-1.3a2.22,2.22,0,0,0-.411-.81q-.295-.276-.782.151l-.295-.277,2.221-2.392.3.276a2.227,2.227,0,0,0-.215.782,14.45,14.45,0,0,0,.6,2.885Zm-10.5,10.018-2.4-2.615a1.977,1.977,0,0,0-.939-.7,1.178,1.178,0,0,0-.744.223l-.264-.289,3.912-3.673.265.289a1.083,1.083,0,0,0-.275.842,2.3,2.3,0,0,0,.6.9l1.021,1.111.583-2.387.891.97-.59,2.381,2.114,2.3a5.818,5.818,0,0,0,.713.7q.557.365,1.324-.354a4.162,4.162,0,0,0,1.231-2.9,6.6,6.6,0,0,0-.369-2.43l.334-.147,1.993,4.258a.581.581,0,0,0-.335.038,2.356,2.356,0,0,0-.516.4l-5.791,5.436-.265-.289a1.115,1.115,0,0,0,.262-.83,2.283,2.283,0,0,0-.6-.9l-1.277-1.39-.251,1.029-.88-.959Zm-6.056-2.779,2.439,2.768-.248.23a4.1,4.1,0,0,0-1.544-.6,3.071,3.071,0,0,0-2.319.439,1.709,1.709,0,0,0-.707.957,1.148,1.148,0,0,0,.131,1.043,1.026,1.026,0,0,0,.856.422,3.538,3.538,0,0,0,.982-.2l2.279-.677a4.2,4.2,0,0,1,2.151-.166,2.731,2.731,0,0,1,1.619,1.162,3.554,3.554,0,0,1,.326,3.572,6.372,6.372,0,0,1-2.453,2.827,14.318,14.318,0,0,1-2.37,1.21,3.945,3.945,0,0,0-.59.295,1.22,1.22,0,0,0-.49.839l-2.995-3.674.261-.234a4.777,4.777,0,0,0,1.479,1.012,3.846,3.846,0,0,0,2.027.282,3.674,3.674,0,0,0,1.612-.626,2.432,2.432,0,0,0,1.072-1.371,1.431,1.431,0,0,0-.209-1.22,1.183,1.183,0,0,0-.867-.522,2.991,2.991,0,0,0-1.04.158l-2.038.573a4.357,4.357,0,0,1-2.5.122,2.607,2.607,0,0,1-1.328-.977,3.354,3.354,0,0,1-.582-2.293,4.071,4.071,0,0,1,.846-2.078,5.516,5.516,0,0,1,1.328-1.259,10.229,10.229,0,0,1,1.709-.84,3.615,3.615,0,0,0,.59-.295A1.3,1.3,0,0,0,387.661,186.419Zm-11.239,9.526a1.7,1.7,0,0,0-.619.638,2.123,2.123,0,0,0-.272.909,5.068,5.068,0,0,0,.815,2.724,8.578,8.578,0,0,0,1.9,2.332,3.56,3.56,0,0,0,1.575.78,1.8,1.8,0,0,0,2.193-1.61,4.853,4.853,0,0,0-.862-2.872,8.129,8.129,0,0,0-2.164-2.566,2.951,2.951,0,0,0-1.333-.572A1.9,1.9,0,0,0,376.423,195.946Zm-.309-1.495a5.481,5.481,0,0,1,4.655-.638,5.719,5.719,0,0,1,3.174,2.729,5.523,5.523,0,0,1,.68,4.29,5.2,5.2,0,0,1-1.092,2.019,7.486,7.486,0,0,1-2.01,1.658,6.684,6.684,0,0,1-2.619.9,5.011,5.011,0,0,1-2.483-.313,5.791,5.791,0,0,1-2.872-2.59,5.942,5.942,0,0,1-.793-2.441,5.117,5.117,0,0,1,.357-2.416A6.615,6.615,0,0,1,376.113,194.451ZM366.5,204.769q2.21-1.929,1.495-3.343a1.168,1.168,0,0,0-.975-.674,1.97,1.97,0,0,0-1.092.238.984.984,0,0,0-.513,1.639Zm3.457-1.806a16.152,16.152,0,0,1,4.61,2.974,2.673,2.673,0,0,0,.739.471.959.959,0,0,0,.738-.017l.183.362-4.93,2.522-.183-.362a1.327,1.327,0,0,0,.348-.279.476.476,0,0,0,0-.537,5.856,5.856,0,0,0-2.041-1.667,18.411,18.411,0,0,0-1.871-.967l-.052-.02-.455.4,1.373,2.706a2.154,2.154,0,0,0,.729.962,1.086,1.086,0,0,0,.869-.041l.183.361-4.7,2.407-.184-.362a1.03,1.03,0,0,0,.444-.721,2.514,2.514,0,0,0-.359-1.06l-3.152-6.214a2.161,2.161,0,0,0-.729-.962,1.083,1.083,0,0,0-.756-.016l-.184-.362,6.357-3.252a10.354,10.354,0,0,1,1.806-.781,1.9,1.9,0,0,1,1.267.058,1.67,1.67,0,0,1,.827.785,2.248,2.248,0,0,1,.207,1.3,3.88,3.88,0,0,1-.545,1.509A6.847,6.847,0,0,1,369.959,202.963Zm-15.208,2.775a1.7,1.7,0,0,0-.7.545,2.11,2.11,0,0,0-.395.862,5.054,5.054,0,0,0,.429,2.811,8.589,8.589,0,0,0,1.559,2.575,3.569,3.569,0,0,0,1.452.993,1.8,1.8,0,0,0,2.395-1.289,4.852,4.852,0,0,0-.456-2.965,8.123,8.123,0,0,0-1.786-2.843,2.95,2.95,0,0,0-1.242-.753A1.9,1.9,0,0,0,354.751,205.738Zm-.1-1.524a5.484,5.484,0,0,1,4.7.019,5.731,5.731,0,0,1,2.765,3.145,5.529,5.529,0,0,1,.079,4.344,5.184,5.184,0,0,1-1.362,1.847,7.443,7.443,0,0,1-2.22,1.362,6.674,6.674,0,0,1-2.718.522,5.011,5.011,0,0,1-2.415-.657,5.793,5.793,0,0,1-2.486-2.966,5.955,5.955,0,0,1-.446-2.528,5.106,5.106,0,0,1,.688-2.342A6.6,6.6,0,0,1,354.652,204.214Zm-12.592,7.013,1.784,5.513a2.617,2.617,0,0,0,.528,1.069,1.029,1.029,0,0,0,1.042.095,2.639,2.639,0,0,0,1.605-1.414,3.625,3.625,0,0,0,.333-1.816,5.628,5.628,0,0,0-.279-1.478,6.2,6.2,0,0,0-1.581-2.585,3.584,3.584,0,0,0-1.533-.894,2.346,2.346,0,0,0-1.393.029.831.831,0,0,0-.65.624A2.072,2.072,0,0,0,342.06,211.227Zm-1.2,7.3-2.146-6.633a2.166,2.166,0,0,0-.57-1.065,1.108,1.108,0,0,0-.76-.13l-.124-.386,5.149-1.68a8.069,8.069,0,0,1,3.39-.485,5.239,5.239,0,0,1,3.158,1.5,5.891,5.891,0,0,1,1.513,2.456,5.571,5.571,0,0,1,.272,2.058,4.539,4.539,0,0,1-.5,1.867,5.988,5.988,0,0,1-3.659,2.684l-5.971,1.949-.124-.386a1.047,1.047,0,0,0,.565-.647A2.516,2.516,0,0,0,340.858,218.527Zm-9.9,2.371-1.734-6.8a2.231,2.231,0,0,0-.5-1.11,1.135,1.135,0,0,0-.758-.194l-.1-.395,5.037-1.175.1.395a.982.982,0,0,0-.612.6,2.535,2.535,0,0,0,.12,1.115l1.735,6.8a2.23,2.23,0,0,0,.5,1.111,1.135,1.135,0,0,0,.758.194l.1.395-5.037,1.175-.1-.4a.981.981,0,0,0,.611-.6A2.523,2.523,0,0,0,330.962,220.9Zm-9.105-1.421.479,3.041a2.124,2.124,0,0,0,.4,1.132.834.834,0,0,0,.449.234,2.153,2.153,0,0,0,.494-.013l.063.4-5.582.888-.064-.4a1.52,1.52,0,0,0,.606-.234.881.881,0,0,0,.315-.7,4.1,4.1,0,0,0-.072-.771l-.48-3.04-3.264-3.774a5.153,5.153,0,0,0-.735-.747,1.539,1.539,0,0,0-.746-.237l-.063-.4,5.912-.94.063.4c-.417.143-.6.379-.546.71a1.948,1.948,0,0,0,.422.748l1.723,2.211.634-1.481q.214-.517.481-1.278a2.2,2.2,0,0,0,.171-.893c-.041-.266-.278-.388-.707-.363l-.063-.4,3.216-.511.064.4a2.213,2.213,0,0,0-.648.483,14.3,14.3,0,0,0-1.3,2.645Zm-13.744-7.457a1.209,1.209,0,0,1,.958.269,1.292,1.292,0,0,1,.229,1.849,1.313,1.313,0,0,1-2.132-1.527A1.3,1.3,0,0,1,308.113,212.02Zm6.034,9.823-.85,4.363a.56.56,0,0,0-.25-.177,1.3,1.3,0,0,0-.472,0l-8.356,1.179,4.427-10.52c-.216.017-.381.033-.5.049a5.124,5.124,0,0,0-1.949.742,4.174,4.174,0,0,0-1.454,1.477,7.008,7.008,0,0,0-.45.957l-.32-.045.308-3.932a.864.864,0,0,0,.273.173,2.216,2.216,0,0,0,.645-.028l7.98-1.126-4.51,10.45c.3-.021.528-.041.68-.063a6.026,6.026,0,0,0,1.821-.559,4.939,4.939,0,0,0,1.448-1.046,5.839,5.839,0,0,0,1.191-1.97Zm-10.526,1.031-1.024,4.42a1.047,1.047,0,0,0-.806-.2l-8.352.734-.035-.4a1.047,1.047,0,0,0,.7-.5,2.527,2.527,0,0,0,.063-1.117l-.606-6.948a2.169,2.169,0,0,0-.316-1.166,1.11,1.11,0,0,0-.711-.3l-.035-.4,7.664-.674a2.826,2.826,0,0,0,.925-.185,1.046,1.046,0,0,0,.228-.189l1.162,3.716-.339.143a3.6,3.6,0,0,0-3.82-2.241,1.632,1.632,0,0,0-1.2.491.806.806,0,0,0-.165.476q0,.21.042.661l.082.946,1.053-.093a3.207,3.207,0,0,0,.864-.169.97.97,0,0,0,.463-.341,1.65,1.65,0,0,0,.177-.967l.328-.078,1.077,4.123-.32.075a3.4,3.4,0,0,0-.728-1.015,1.853,1.853,0,0,0-.885-.491,3.376,3.376,0,0,0-1.055-.027l-.877.077.294,3.375a2.58,2.58,0,0,0,.337,1.307,1.6,1.6,0,0,0,1.417.356,4.24,4.24,0,0,0,3.1-1.753,7.065,7.065,0,0,0,.955-1.747Zm-15.817,3.3-.363-6.965a2.173,2.173,0,0,0-.276-1.177,1.12,1.12,0,0,0-.709-.322l-.021-.4,5.192-.273.022.4a1.018,1.018,0,0,0-.721.479,2.526,2.526,0,0,0-.1,1.115l.363,6.966a2.169,2.169,0,0,0,.276,1.176,1.115,1.115,0,0,0,.709.322l.021.4-5.193.273-.021-.4a1.019,1.019,0,0,0,.721-.48A2.51,2.51,0,0,0,287.8,226.174Zm-1.955-2.107-1.3,4.25a.553.553,0,0,0-.229-.2,1.267,1.267,0,0,0-.471-.046l-8.433.3,5.5-10c-.217-.006-.382-.008-.5,0a5.123,5.123,0,0,0-2.015.534,4.16,4.16,0,0,0-1.6,1.316,6.986,6.986,0,0,0-.546.9l-.315-.079.717-3.877a.9.9,0,0,0,.253.2,2.289,2.289,0,0,0,.645.04l8.053-.282-5.574,9.919c.3.011.529.014.684.008a6.009,6.009,0,0,0,1.869-.365,4.938,4.938,0,0,0,1.55-.887,5.856,5.856,0,0,0,1.39-1.835ZM267.771,219.3l-.3,5.789a2.616,2.616,0,0,0,.112,1.188,1.031,1.031,0,0,0,.94.463,2.631,2.631,0,0,0,2-.742,3.613,3.613,0,0,0,.958-1.576,5.655,5.655,0,0,0,.267-1.48,6.193,6.193,0,0,0-.553-2.983,3.6,3.6,0,0,0-1.113-1.385,2.338,2.338,0,0,0-1.31-.475.826.826,0,0,0-.83.349A2.068,2.068,0,0,0,267.771,219.3Zm-3.728,6.382.363-6.965a2.17,2.17,0,0,0-.151-1.2,1.108,1.108,0,0,0-.663-.394l.021-.4,5.407.285a8.06,8.06,0,0,1,3.338.766,5.261,5.261,0,0,1,2.412,2.538,5.908,5.908,0,0,1,.537,2.838,5.576,5.576,0,0,1-.48,2.019,4.531,4.531,0,0,1-1.137,1.561,5.964,5.964,0,0,1-4.374,1.189l-6.27-.33.021-.4a1.046,1.046,0,0,0,.759-.4A2.483,2.483,0,0,0,264.043,225.681Zm-7.242-8.425a1.687,1.687,0,0,0-.875.151,2.1,2.1,0,0,0-.752.574,5.057,5.057,0,0,0-.935,2.683,8.617,8.617,0,0,0,.173,3.009,3.577,3.577,0,0,0,.818,1.561,1.813,1.813,0,0,0,1.192.608,1.8,1.8,0,0,0,1.525-.616,4.851,4.851,0,0,0,.983-2.832,8.152,8.152,0,0,0-.248-3.353,2.981,2.981,0,0,0-.744-1.25A1.9,1.9,0,0,0,256.8,217.257Zm.625-1.392a5.5,5.5,0,0,1,4.14,2.232,5.753,5.753,0,0,1,.97,4.08,5.511,5.511,0,0,1-1.961,3.873,5.165,5.165,0,0,1-2.065.989,7.459,7.459,0,0,1-2.6.155,6.674,6.674,0,0,1-2.644-.821,5.033,5.033,0,0,1-1.825-1.719,5.818,5.818,0,0,1-.808-3.79,5.937,5.937,0,0,1,.787-2.443,5.091,5.091,0,0,1,1.7-1.744A6.577,6.577,0,0,1,257.426,215.864Zm-15.891,4.072.573-3.628a2.171,2.171,0,0,0-.026-1.208,1.128,1.128,0,0,0-.61-.461l.063-.4,5.12.815-.063.4a1.015,1.015,0,0,0-.805.318,2.516,2.516,0,0,0-.329,1.068l-.244,1.543,2.168-1.06-.213,1.346L245,219.722l-.5,3.2a6.422,6.422,0,0,0-.113,1.031q.051.687,1.054.846a3.849,3.849,0,0,0,2.94-.863,6.775,6.775,0,0,0,1.636-1.862l.309.177-2.067,4.354a.58.58,0,0,0-.226-.248,2.172,2.172,0,0,0-.611-.161l-7.58-1.206.063-.4a1.051,1.051,0,0,0,.789-.321,2.511,2.511,0,0,0,.331-1.069l.3-1.93-.933.457.209-1.33Zm-10.376.779-1.563-7.029-1.505,6.546a2.168,2.168,0,0,0-.058,1.207,1.1,1.1,0,0,0,.669.524l-.091.395-3.17-.735.091-.395a1.052,1.052,0,0,0,.793-.27,2.491,2.491,0,0,0,.4-1.042l1.563-6.8a2.174,2.174,0,0,0,.058-1.206,1.142,1.142,0,0,0-.562-.5l.091-.395,5.415,1.255-.09.395c-.272.021-.428.122-.472.309a2.013,2.013,0,0,0,.035.729l.491,2.583,1.816-2.188a1.42,1.42,0,0,0,.307-.527.422.422,0,0,0-.2-.448l.09-.395,5.112,1.186-.091.395a1.013,1.013,0,0,0-.825.261,2.517,2.517,0,0,0-.4,1.043l-1.563,6.8a2.186,2.186,0,0,0-.058,1.207,1.124,1.124,0,0,0,.592.506l-.09.395-5.114-1.186.091-.395a1.015,1.015,0,0,0,.872-.25,2.5,2.5,0,0,0,.4-1.043l1.5-6.546Zm-16.167-7.409.153.044a2.859,2.859,0,0,1,.912.491,4.962,4.962,0,0,1,.9.885l-.122-4.114Zm-.881,1.207-1.149,1.625a3.8,3.8,0,0,0-.578,1.1q-.152.533.554.864l-.111.39-3.495-1.007.111-.39a1.862,1.862,0,0,0,1.165-.437,8.644,8.644,0,0,0,1.052-1.2l4.042-5.489c.046-.063.151-.194.311-.391a1.764,1.764,0,0,0,.35-.562.375.375,0,0,0-.25-.479l.112-.39,4.615,1.329-.111.39q-.383-.051-.472.262a9.308,9.308,0,0,0-.012,1.432l.353,6.978a5.1,5.1,0,0,0,.217,1.412,1.21,1.21,0,0,0,.57.581l-.111.39-5.464-1.573.111-.39a.917.917,0,0,0,1.146-.658,2.122,2.122,0,0,0-.136-1.35,3.944,3.944,0,0,0-1.3-1.726A4.438,4.438,0,0,0,214.111,214.514Zm-3.294-1.192-2.866,3.876a.56.56,0,0,0-.176-.288,2.147,2.147,0,0,0-.567-.273L200,214l.138-.381a1.047,1.047,0,0,0,.835-.164,2.509,2.509,0,0,0,.527-.986l2.375-6.554a2.172,2.172,0,0,0,.2-1.191,1.132,1.132,0,0,0-.511-.569l.138-.381,4.871,1.781-.139.381a1.011,1.011,0,0,0-.85.158,2.511,2.511,0,0,0-.527.986l-2.1,5.782a6.384,6.384,0,0,0-.307.991q-.08.683.867,1.03a3.859,3.859,0,0,0,3.052-.283,6.881,6.881,0,0,0,1.958-1.514Zm-15.057-10.585-2.255,5.335a2.624,2.624,0,0,0-.3,1.155c.046.318.286.571.725.758a2.626,2.626,0,0,0,2.135-.009,3.606,3.606,0,0,0,1.437-1.152,5.649,5.649,0,0,0,.756-1.3,6.23,6.23,0,0,0,.5-2.994,3.613,3.613,0,0,0-.574-1.684,2.356,2.356,0,0,0-1.069-.9.827.827,0,0,0-.9.043A2.055,2.055,0,0,0,195.761,202.737Zm-5.676,4.717,2.714-6.42a2.173,2.173,0,0,0,.265-1.179,1.121,1.121,0,0,0-.489-.6l.158-.373,4.984,2.124a8.092,8.092,0,0,1,2.876,1.867,5.284,5.284,0,0,1,1.4,3.214,5.9,5.9,0,0,1-.463,2.851,5.536,5.536,0,0,1-1.139,1.731,4.485,4.485,0,0,1-1.6,1.077,5.959,5.959,0,0,1-4.515-.384L188.5,208.9l.158-.373a1.04,1.04,0,0,0,.849-.116A2.5,2.5,0,0,0,190.085,207.453Zm-7.477-7.261-1.579,2.637a2.126,2.126,0,0,0-.422,1.123.83.83,0,0,0,.194.469,2.093,2.093,0,0,0,.387.31l-.208.347-4.845-2.923.208-.348a1.5,1.5,0,0,0,.612.212.876.876,0,0,0,.688-.331,4.1,4.1,0,0,0,.438-.637l1.579-2.638-.086-5a5.247,5.247,0,0,0-.085-1.048,1.537,1.537,0,0,0-.419-.662l.208-.348,5.131,3.1-.208.347q-.615-.239-.873.19a1.955,1.955,0,0,0-.155.847l-.095,2.805,1.433-.725q.5-.258,1.187-.668a2.187,2.187,0,0,0,.7-.573c.139-.231.036-.477-.308-.736l.208-.347,2.792,1.684-.208.347a2.214,2.214,0,0,0-.805-.048,14.277,14.277,0,0,0-2.685,1.189Zm-11.519-8.323,2.15-2.971a2.171,2.171,0,0,0,.523-1.088,1.132,1.132,0,0,0-.335-.689l.237-.328,4.194,3.059-.237.328a1.014,1.014,0,0,0-.861-.083,2.494,2.494,0,0,0-.777.8l-.914,1.263,2.41.043-.8,1.1-2.406-.05-1.894,2.618a6.269,6.269,0,0,0-.567.867q-.264.636.557,1.234a3.849,3.849,0,0,0,3.01.572,6.743,6.743,0,0,0,2.3-.912l.2.3-3.81,2.939a.587.587,0,0,0-.09-.325,2.177,2.177,0,0,0-.472-.421l-6.209-4.53.238-.327a1.049,1.049,0,0,0,.848.073,2.494,2.494,0,0,0,.777-.8l1.144-1.581-1.039-.018.788-1.089Zm-3.121-8.115a1.7,1.7,0,0,0-.8-.394,2.1,2.1,0,0,0-.945.021A5.017,5.017,0,0,0,163.9,185a8.6,8.6,0,0,0-1.621,2.536,3.584,3.584,0,0,0-.252,1.746,1.825,1.825,0,0,0,.61,1.195,1.791,1.791,0,0,0,1.594.4,4.812,4.812,0,0,0,2.453-1.711,8.127,8.127,0,0,0,1.762-2.859,2.985,2.985,0,0,0,.13-1.45A1.922,1.922,0,0,0,167.968,183.754Zm1.321-.757a5.538,5.538,0,0,1,2.042,4.249,5.752,5.752,0,0,1-1.6,3.875,5.471,5.471,0,0,1-3.853,1.975,5.144,5.144,0,0,1-2.25-.418,7.482,7.482,0,0,1-2.191-1.408,6.724,6.724,0,0,1-1.659-2.225,5.071,5.071,0,0,1-.47-2.469,5.81,5.81,0,0,1,1.564-3.543,5.9,5.9,0,0,1,2.067-1.511,5.049,5.049,0,0,1,2.4-.406A6.588,6.588,0,0,1,169.289,183Zm-9.416-5.007a14.368,14.368,0,0,1-.67,3.385A22.948,22.948,0,0,1,157.548,185a2.558,2.558,0,0,0-.373,1.121,1.22,1.22,0,0,0,.308.738l-.3.271-3.763-4.2.3-.271q.551.529.929.189a4.145,4.145,0,0,0,.684-.964,11.191,11.191,0,0,0,.715-1.481,12.828,12.828,0,0,0,.673-2.739l-.783-.087-2.6,2.347a2.123,2.123,0,0,0-.731.949,1.12,1.12,0,0,0,.27.851l-.3.271-3.554-3.963.3-.271a1.041,1.041,0,0,0,.82.255,2.5,2.5,0,0,0,.926-.622l5.161-4.666a2.171,2.171,0,0,0,.737-.956,1.117,1.117,0,0,0-.191-.749l.3-.271,3.468,3.868-.3.271a1.043,1.043,0,0,0-.82-.255,2.49,2.49,0,0,0-.927.621l-1.556,1.408,1.949.234a12.525,12.525,0,0,0,1.457.052,1.233,1.233,0,0,0,.769-.179c.244-.22.219-.549-.071-.986l.3-.271,3.2,3.573-.3.271a6,6,0,0,0-1.09-.655,7.809,7.809,0,0,0-1.59-.484c-.059-.014-.433-.064-1.122-.158Zm-9.006-3.827-4.331,1.415a.589.589,0,0,0,.064-.307,1.15,1.15,0,0,0-.188-.414l-4.346-6.765,11.373-1.323c-.1-.182-.179-.319-.238-.413a4.348,4.348,0,0,0-1.442-1.345,3.749,3.749,0,0,0-1.922-.546,6.964,6.964,0,0,0-1.052.078l-.084-.3,3.725-1.677a.93.93,0,0,0-.052.326,1.967,1.967,0,0,0,.278.554L156.8,169.9l-11.341,1.214c.136.254.243.444.324.567a5.086,5.086,0,0,0,1.224,1.324,4.269,4.269,0,0,0,1.525.757,5.605,5.605,0,0,0,2.271.07ZM151.2,161.4l-3.154,1.735-.174-.3a3.974,3.974,0,0,0,.888-1.376,3.2,3.2,0,0,0,.031-2.392,1.819,1.819,0,0,0-.785-.929,1.116,1.116,0,0,0-1.034-.124.98.98,0,0,0-.576.741,3.715,3.715,0,0,0,0,1.016l.206,2.41a4.286,4.286,0,0,1-.261,2.16,2.575,2.575,0,0,1-1.441,1.316,3.474,3.474,0,0,1-3.515-.544,6.829,6.829,0,0,1-2.25-3.1,15.444,15.444,0,0,1-.7-2.629,4.009,4.009,0,0,0-.17-.653,1.283,1.283,0,0,0-.713-.684l4.138-2.064.175.313a4.483,4.483,0,0,0-1.268,1.214,3.821,3.821,0,0,0-.67,1.93,3.9,3.9,0,0,0,.288,1.741,2.591,2.591,0,0,0,1.114,1.388,1.378,1.378,0,0,0,1.219.089,1.118,1.118,0,0,0,.674-.729,3.068,3.068,0,0,0,.051-1.062l-.153-2.148a4.44,4.44,0,0,1,.373-2.5,2.456,2.456,0,0,1,1.2-1.073,3.213,3.213,0,0,1,2.331-.018,4.256,4.256,0,0,1,1.841,1.336,5.941,5.941,0,0,1,.956,1.614,11,11,0,0,1,.476,1.887,3.875,3.875,0,0,0,.17.654A1.372,1.372,0,0,0,151.2,161.4Zm262.617,1.463,4.3,2.258a2.16,2.16,0,0,0,1.149.36,1.1,1.1,0,0,0,.67-.511l.358.188-2.425,4.663-.358-.188a1.06,1.06,0,0,0-.06-.838,2.479,2.479,0,0,0-.9-.656l-6.156-3.228a2.15,2.15,0,0,0-1.149-.361,1.143,1.143,0,0,0-.621.42l-.358-.187,2.425-4.663.358.188a1.038,1.038,0,0,0,.011.931,2.463,2.463,0,0,0,.9.655l.907.477,1.507-2.9-.908-.477a2.143,2.143,0,0,0-1.149-.359,1.09,1.09,0,0,0-.669.511l-.358-.188,2.439-4.691.359.188a1.022,1.022,0,0,0,.044.867,2.481,2.481,0,0,0,.9.655l6.156,3.229a2.152,2.152,0,0,0,1.148.36,1.118,1.118,0,0,0,.638-.449l.357.188L420.9,164l-.357-.188a1.036,1.036,0,0,0-.012-.93,2.447,2.447,0,0,0-.9-.656l-4.3-2.257Z" transform="translate(-1.778 -12.233)" fill="#ffbe00" fill-rule="evenodd"/>
    <path id="Path_158" data-name="Path 158" d="M279.444,33.459a245.84,245.84,0,0,0-59.786,7.2c-19.133,4.816-36.364,11.865-50.779,20.6s-26.031,19.155-33.95,30.727c-7.556,11.04-11.733,23.129-11.733,35.78s4.177,24.74,11.733,35.78c7.919,11.572,19.536,22,33.95,30.727s31.646,15.781,50.779,20.6a245.886,245.886,0,0,0,59.786,7.2,245.894,245.894,0,0,0,59.787-7.2c19.135-4.816,36.364-11.865,50.78-20.6s26.03-19.156,33.949-30.727c7.556-11.04,11.733-23.13,11.733-35.78s-4.177-24.74-11.733-35.78c-7.919-11.572-19.536-22-33.949-30.727s-31.645-15.781-50.78-20.6a245.848,245.848,0,0,0-59.787-7.2m0-3.637a249.588,249.588,0,0,1,60.706,7.32c19.488,4.9,37.067,12.1,51.814,21.036,14.886,9.017,26.9,19.8,35.1,31.795,7.959,11.629,12.359,24.4,12.359,37.8s-4.4,26.166-12.359,37.8c-8.2,11.99-20.217,22.777-35.1,31.794-14.747,8.932-32.326,16.131-51.814,21.036a249.588,249.588,0,0,1-60.706,7.32,249.588,249.588,0,0,1-60.706-7.32c-19.486-4.9-37.067-12.1-51.813-21.036-14.887-9.017-26.9-19.8-35.1-31.794-7.96-11.63-12.36-24.4-12.36-37.8s4.4-26.166,12.36-37.8c8.2-11.991,20.216-22.778,35.1-31.795,14.745-8.931,32.327-16.131,51.813-21.036A249.588,249.588,0,0,1,279.444,29.822Z" transform="translate(0 0)" fill="#ffbe00"/>
  </g>
</svg>
